<svg width="24" height="24" viewBox="0 0 24 24" fill="none" xmlns="http://www.w3.org/2000/svg">
    <path fill-rule="evenodd" clip-rule="evenodd" d="M11.8845 1.07544C12.1831 1.07544 12.4696 1.1808 12.6808 1.36833C12.892 1.55587 13.0106 1.81022 13.0106 2.07544V20.0754C13.0106 20.3407 12.892 20.595 12.6808 20.7825C12.4696 20.9701 12.1831 21.0754 11.8845 21.0754C11.5858 21.0754 11.2993 20.9701 11.0881 20.7825C10.8769 20.595 10.7583 20.3407 10.7583 20.0754V2.07544C10.7583 1.81022 10.8769 1.55587 11.0881 1.36833C11.2993 1.1808 11.5858 1.07544 11.8845 1.07544Z" fill="#FF2D2D"/>
    <path fill-rule="evenodd" clip-rule="evenodd" d="M11.0872 1.33085C11.1918 1.22598 11.3161 1.14277 11.4529 1.086C11.5897 1.02922 11.7364 1 11.8845 1C12.0326 1 12.1793 1.02922 12.3161 1.086C12.4529 1.14277 12.5772 1.22598 12.6818 1.33085L19.4388 8.08778C19.6502 8.29924 19.769 8.58605 19.769 8.8851C19.769 9.18415 19.6502 9.47095 19.4388 9.68242C19.2273 9.89388 18.9405 10.0127 18.6414 10.0127C18.3424 10.0127 18.0556 9.89388 17.8441 9.68242L11.8845 3.72055L5.9249 9.68242C5.71343 9.89388 5.42663 10.0127 5.12758 10.0127C4.82853 10.0127 4.54172 9.89388 4.33026 9.68242C4.1188 9.47095 4 9.18415 4 8.8851C4 8.58605 4.1188 8.29924 4.33026 8.08778L11.0872 1.33085Z" fill="#FF2D2D"/>
</svg>
