<svg width="24" height="24" viewBox="0 0 24 24" fill="none" xmlns="http://www.w3.org/2000/svg">
    <path fill-rule="evenodd" clip-rule="evenodd" d="M12.1155 22.9246C11.8169 22.9246 11.5304 22.8192 11.3192 22.6317C11.108 22.4441 10.9894 22.1898 10.9894 21.9246L10.9894 3.92456C10.9894 3.65934 11.108 3.40499 11.3192 3.21745C11.5304 3.02992 11.8169 2.92456 12.1155 2.92456C12.4142 2.92456 12.7007 3.02992 12.9119 3.21745C13.1231 3.40499 13.2417 3.65934 13.2417 3.92456L13.2417 21.9246C13.2417 22.1898 13.1231 22.4441 12.9119 22.6317C12.7007 22.8192 12.4142 22.9246 12.1155 22.9246Z" fill="#15B825"/>
    <path fill-rule="evenodd" clip-rule="evenodd" d="M12.9128 22.6691C12.8082 22.774 12.6839 22.8572 12.5471 22.914C12.4103 22.9708 12.2636 23 12.1155 23C11.9674 23 11.8207 22.9708 11.6839 22.914C11.5471 22.8572 11.4228 22.774 11.3182 22.6691L4.56124 15.9122C4.34978 15.7008 4.23098 15.414 4.23098 15.1149C4.23098 14.8158 4.34978 14.529 4.56124 14.3176C4.7727 14.1061 5.05951 13.9873 5.35856 13.9873C5.65761 13.9873 5.94442 14.1061 6.15588 14.3176L12.1155 20.2794L18.0751 14.3176C18.2866 14.1061 18.5734 13.9873 18.8724 13.9873C19.1715 13.9873 19.4583 14.1061 19.6697 14.3176C19.8812 14.529 20 14.8158 20 15.1149C20 15.414 19.8812 15.7008 19.6697 15.9122L12.9128 22.6691Z" fill="#15B825"/>
</svg>
