<svg width="14" height="14" viewBox="0 0 14 14" fill="none" xmlns="http://www.w3.org/2000/svg">
    <g clip-path="url(#clip0_97_400)">
        <path d="M13.6355 11.9034L8.14587 6.41375L1.73212 0H1.23088L1.12853 0.260066C0.858405 0.946504 0.742987 1.64858 0.794803 2.29031C0.853866 3.02181 1.13176 3.65512 1.59849 4.12185L6.60541 9.12877L7.26581 8.46836L11.8947 13.6443C12.3552 14.1048 13.1477 14.1322 13.6355 13.6443C14.1155 13.1643 14.1155 12.3834 13.6355 11.9034Z" fill="white"/>
        <path d="M4.28525 7.96875L0.363859 11.8901C-0.116078 12.3701 -0.116078 13.151 0.363859 13.631C0.819789 14.0869 1.60852 14.1272 2.1047 13.631L6.02612 9.70956L4.28525 7.96875Z" fill="white"/>
        <path d="M13.4054 2.33092L11.181 4.55534L10.6007 3.97505L12.8251 1.75061L12.2448 1.17032L10.0204 3.39473L9.44013 2.81444L11.6646 0.590027L11.0843 0.00976562L8.18287 2.91121C7.82792 3.26616 7.61598 3.73746 7.58601 4.23834C7.57843 4.36524 7.54967 4.49007 7.50195 4.60879L9.38673 6.49357C9.50546 6.4458 9.63031 6.41706 9.75718 6.40949C10.2581 6.3796 10.7294 6.16761 11.0843 5.81266L13.9858 2.91124L13.4054 2.33092Z" fill="white"/>
    </g>
    <defs>
        <clipPath id="clip0_97_400">
            <rect width="14" height="14" fill="white"/>
        </clipPath>
    </defs>
</svg>
