<svg width="24" height="24" viewBox="0 0 24 24" fill="none" xmlns="http://www.w3.org/2000/svg">
    <path d="M17.075 3.70759H19.7829C20.1527 3.70759 20.4536 4.00841 20.4536 4.37822V7.08611C20.4536 7.55763 20.8358 7.93991 21.3074 7.93991C21.7789 7.93991 22.1612 7.55763 22.1612 7.08611V4.37822C22.1612 3.06684 21.0943 2 19.7829 2H17.075C16.6035 2 16.2212 2.38227 16.2212 2.85379C16.2212 3.32532 16.6035 3.70759 17.075 3.70759Z" fill="white"/>
    <path d="M2.23926 4.37822V7.08611C2.23926 7.55763 2.62153 7.93991 3.09305 7.93991C3.56458 7.93991 3.94685 7.55763 3.94685 7.08611V4.37822C3.94685 4.00841 4.24772 3.70759 4.61747 3.70759H7.32543C7.79695 3.70759 8.17922 3.32532 8.17922 2.85379C8.17922 2.38227 7.79695 2 7.32543 2H4.61747C3.30616 2 2.23926 3.06684 2.23926 4.37822Z" fill="white"/>
    <path d="M7.32543 20.2143H4.61747C4.24767 20.2143 3.94685 19.9134 3.94685 19.5436V16.8357C3.94685 16.3642 3.56458 15.9819 3.09305 15.9819C2.62153 15.9819 2.23926 16.3642 2.23926 16.8357V19.5436C2.23926 20.855 3.30616 21.9218 4.61747 21.9218H7.32543C7.79695 21.9218 8.17922 21.5396 8.17922 21.068C8.17922 20.5965 7.79695 20.2143 7.32543 20.2143Z" fill="white"/>
    <path d="M22.1612 19.5436V16.8357C22.1612 16.3642 21.7789 15.9819 21.3074 15.9819C20.8358 15.9819 20.4536 16.3642 20.4536 16.8357V19.5436C20.4536 19.9134 20.1527 20.2143 19.7829 20.2143H17.075C16.6035 20.2143 16.2212 20.5965 16.2212 21.068C16.2212 21.5396 16.6035 21.9218 17.075 21.9218H19.7829C21.0943 21.9218 22.1612 20.855 22.1612 19.5436Z" fill="white"/>
    <path d="M2 12.7464C2 13.1488 2.26864 13.475 2.6 13.475H21.8C22.1314 13.475 22.4 13.1488 22.4 12.7464C22.4 12.344 22.1314 12.0178 21.8 12.0178H2.6C2.26864 12.0178 2 12.344 2 12.7464Z" fill="white"/>
</svg>
