<svg width="24" height="24" viewBox="0 0 24 24" fill="none" xmlns="http://www.w3.org/2000/svg">
    <path d="M19.5188 6.79395C19.2622 5.26897 18.5071 3.87724 17.3523 2.8211C16.0691 1.64651 14.401 1 12.6638 1C11.3214 1 10.0136 1.38495 8.89328 2.11043C7.96052 2.71252 7.18569 3.52684 6.63788 4.48427C6.40099 4.43985 6.15423 4.41518 5.90746 4.41518C3.80999 4.41518 2.10241 6.12276 2.10241 8.22023C2.10241 8.49167 2.13202 8.75324 2.18137 9.00987C0.824183 9.99692 0 11.5861 0 13.2788C0 14.6459 0.508328 15.9735 1.43615 17.0247C2.38865 18.1006 3.64713 18.7372 4.98951 18.8112C5.00432 18.8112 5.01419 18.8112 5.029 18.8112H9.27329C9.64343 18.8112 9.93954 18.5151 9.93954 18.145C9.93954 17.7748 9.64343 17.4787 9.27329 17.4787H5.04874C3.03023 17.3553 1.33251 15.4355 1.33251 13.2739C1.33251 11.8772 2.08266 10.5743 3.2918 9.8686C3.5731 9.70574 3.69155 9.36521 3.58297 9.05922C3.48427 8.79272 3.43492 8.51141 3.43492 8.21036C3.43492 6.84824 4.54534 5.73782 5.90746 5.73782C6.19864 5.73782 6.48489 5.78717 6.75139 5.88587C7.07711 6.00432 7.43738 5.85626 7.58544 5.54534C8.50833 3.58606 10.5022 2.32264 12.6687 2.32264C15.5805 2.32264 17.984 4.50401 18.2603 7.39605C18.2899 7.6971 18.517 7.93893 18.8131 7.98828C21.0093 8.36336 22.6675 10.3917 22.6675 12.7064C22.6675 15.1592 20.7378 17.2912 18.359 17.4738H14.7218C14.3516 17.4738 14.0555 17.7699 14.0555 18.14C14.0555 18.5102 14.3516 18.8063 14.7218 18.8063H18.3837C18.3985 18.8063 18.4133 18.8063 18.4331 18.8063C19.9383 18.6977 21.3449 18.0068 22.3911 16.8519C23.4325 15.707 24 14.2363 24 12.7064C23.9951 9.93769 22.1049 7.47502 19.5188 6.79395Z" fill="white"/>
    <path d="M15.9998 13.9107C16.2614 13.6491 16.2614 13.2296 15.9998 12.968L12.4711 9.43935C12.3478 9.31597 12.175 9.24194 12.0023 9.24194C11.8296 9.24194 11.6568 9.31104 11.5335 9.43935L8.00477 12.968C7.7432 13.2296 7.7432 13.6491 8.00477 13.9107C8.13308 14.039 8.30582 14.1081 8.47362 14.1081C8.64141 14.1081 8.81415 14.0439 8.94246 13.9107L11.336 11.5171V22.5177C11.336 22.8878 11.6322 23.184 12.0023 23.184C12.3724 23.184 12.6686 22.8878 12.6686 22.5177V11.5171L15.0621 13.9107C15.3188 14.1722 15.7383 14.1722 15.9998 13.9107Z" fill="white"/>
</svg>
